<svg xmlns="http://www.w3.org/2000/svg" viewBox="0 0 512 512" role="img" aria-labelledby="title desc">
  <title id="title">SJ Mithila logo</title>
  <desc id="desc">Black and yellow SJ shield logo with Mithila painting inspired fish, lotus, leaf, and dotted motifs.</desc>
  <defs>
    <linearGradient id="gold" x1="0" y1="0" x2="1" y2="1">
      <stop offset="0" stop-color="#ffe16a"/>
      <stop offset="0.48" stop-color="#f4aa05"/>
      <stop offset="1" stop-color="#ffcf2f"/>
    </linearGradient>
    <linearGradient id="dark" x1="0" y1="0" x2="1" y2="1">
      <stop offset="0" stop-color="#28231e"/>
      <stop offset="1" stop-color="#050505"/>
    </linearGradient>
    <pattern id="dots" width="18" height="18" patternUnits="userSpaceOnUse">
      <circle cx="4" cy="4" r="2" fill="#f7c43a" opacity="0.55"/>
      <circle cx="13" cy="13" r="1.6" fill="#e45030" opacity="0.48"/>
    </pattern>
    <filter id="shadow" x="-20%" y="-20%" width="140%" height="140%">
      <feDropShadow dx="0" dy="12" stdDeviation="12" flood-color="#000" flood-opacity="0.48"/>
    </filter>
  </defs>

  <rect width="512" height="512" rx="88" fill="#050505"/>
  <path d="M38 82c78-44 157-55 236-35 89 22 150 14 200-10-28 54-33 102-16 144 23 56 19 119-12 171-37 63-100 101-190 116-96-17-160-58-194-123-30-57-29-119 0-184 13-29 7-56-24-79z" fill="#0d0d0d"/>

  <path d="M256 34 425 108v130c0 109-64 190-169 237C151 428 87 347 87 238V108z" fill="url(#gold)" filter="url(#shadow)"/>
  <path d="M256 66 397 130v106c0 91-52 158-141 200-89-42-141-109-141-200V130z" fill="url(#dark)"/>
  <path d="M256 82 379 138v94c0 79-45 137-123 175-78-38-123-96-123-175v-94z" fill="url(#dots)" opacity="0.28"/>

  <g fill="none" stroke="#ffd23a" stroke-width="5" stroke-linecap="round" stroke-linejoin="round" opacity="0.95">
    <path d="M128 146h256"/>
    <path d="M144 365h224"/>
    <path d="M116 238c41-24 76-24 117 0s76 24 117 0 63-21 82-8"/>
  </g>

  <g stroke="#111" stroke-width="4" stroke-linecap="round" stroke-linejoin="round">
    <path d="M152 184c27-35 70-35 96 0-27 35-70 35-96 0z" fill="#31a35b"/>
    <circle cx="179" cy="184" r="7" fill="#245f86"/>
    <path d="M188 169c18 8 32 8 47 0"/>
    <path d="M246 184c18-18 34-23 59-20-14 20-29 31-55 38" fill="#e45030"/>

    <path d="M286 170c18-28 52-31 76-8-15 31-49 38-76 8z" fill="#245f86"/>
    <circle cx="315" cy="169" r="6" fill="#ffd23a"/>
    <path d="M325 154c14 8 26 10 38 6"/>

    <path d="M160 338c15-25 42-25 57 0-16 18-41 18-57 0z" fill="#ffd23a"/>
    <path d="M190 338c0-22 11-34 25-47 13 13 22 27 22 47" fill="#e45030"/>
    <path d="M292 338c15-25 42-25 57 0-16 18-41 18-57 0z" fill="#31a35b"/>
    <path d="M322 338c0-22 11-34 25-47 13 13 22 27 22 47" fill="#245f86"/>
  </g>

  <g fill="#ffd23a" opacity="0.9">
    <circle cx="137" cy="133" r="4"/>
    <circle cx="375" cy="133" r="4"/>
    <circle cx="137" cy="379" r="4"/>
    <circle cx="375" cy="379" r="4"/>
    <circle cx="154" cy="405" r="3"/>
    <circle cx="358" cy="405" r="3"/>
  </g>

  <path d="M145 395 90 348l44-17-37-38h60l-31-49 55 35" fill="#050505" stroke="#f4aa05" stroke-width="12" stroke-linejoin="round"/>
  <path d="M367 395l55-47-44-17 37-38h-60l31-49-55 35" fill="#050505" stroke="#f4aa05" stroke-width="12" stroke-linejoin="round"/>

  <text x="256" y="322" text-anchor="middle" font-family="Arial Black, Impact, sans-serif" font-size="164" font-style="italic" font-weight="900" fill="#f7f3e9" stroke="#000" stroke-width="18" paint-order="stroke">SJ</text>
  <text x="256" y="322" text-anchor="middle" font-family="Arial Black, Impact, sans-serif" font-size="164" font-style="italic" font-weight="900" fill="#f7f3e9" stroke="#ffbf00" stroke-width="5" paint-order="stroke">SJ</text>

  <path d="M177 187h154l-29 32H149z" fill="#ffbf00" stroke="#060606" stroke-width="5" stroke-linejoin="round"/>
  <path d="M342 213h34l-58 76h-35z" fill="#ffbf00" stroke="#060606" stroke-width="5" stroke-linejoin="round"/>
</svg>
