<svg xmlns="http://www.w3.org/2000/svg" viewBox="0 0 512 512" role="img" aria-labelledby="title desc">
  <title id="title">SJ logo</title>
  <desc id="desc">Black and yellow shield logo with SJ letters.</desc>
  <defs>
    <linearGradient id="gold" x1="0" y1="0" x2="1" y2="1">
      <stop offset="0" stop-color="#ffd75a"/>
      <stop offset="0.48" stop-color="#f2a900"/>
      <stop offset="1" stop-color="#ffcc29"/>
    </linearGradient>
    <linearGradient id="dark" x1="0" y1="0" x2="1" y2="1">
      <stop offset="0" stop-color="#242424"/>
      <stop offset="1" stop-color="#050505"/>
    </linearGradient>
    <filter id="shadow" x="-20%" y="-20%" width="140%" height="140%">
      <feDropShadow dx="0" dy="12" stdDeviation="12" flood-color="#000" flood-opacity="0.45"/>
    </filter>
  </defs>
  <rect width="512" height="512" rx="96" fill="#060606"/>
  <path d="M256 38 423 112v128c0 106-63 187-167 234C152 427 89 346 89 240V112z" fill="url(#gold)" filter="url(#shadow)"/>
  <path d="M256 66 397 130v107c0 91-52 158-141 200-89-42-141-109-141-200V130z" fill="url(#dark)"/>
  <path d="M132 150h248" stroke="#ffca28" stroke-width="10" stroke-linecap="round"/>
  <path d="M144 363h224" stroke="#ffca28" stroke-width="10" stroke-linecap="round"/>
  <path d="M118 257c50-23 88-23 138 0s88 23 138 0" fill="none" stroke="#3a3a3a" stroke-width="16" stroke-linecap="round"/>
  <text x="256" y="314" text-anchor="middle" font-family="Arial Black, Impact, sans-serif" font-size="160" font-style="italic" font-weight="900" fill="#f7f3e9" stroke="#000" stroke-width="14" paint-order="stroke">SJ</text>
  <text x="256" y="314" text-anchor="middle" font-family="Arial Black, Impact, sans-serif" font-size="160" font-style="italic" font-weight="900" fill="#f7f3e9" stroke="#ffbf00" stroke-width="4" paint-order="stroke">SJ</text>
  <path d="M181 183h150l-28 32H153z" fill="#ffbf00"/>
  <path d="M341 212h32l-57 73h-32z" fill="#ffbf00"/>
</svg>
